<?xml version="1.0" standalone="no"?>
<!DOCTYPE svg PUBLIC "-//W3C//DTD SVG 20010904//EN"
 "http://www.w3.org/TR/2001/REC-SVG-20010904/DTD/svg10.dtd">
<svg version="1.0" xmlns="http://www.w3.org/2000/svg"
 width="704.000000pt" height="704.000000pt" viewBox="0 0 704.000000 704.000000"
 preserveAspectRatio="xMidYMid meet">
<metadata>
Created by potrace 1.14, written by Peter Selinger 2001-2017
</metadata>
<g transform="translate(0.000000,704.000000) scale(0.100000,-0.100000)"
fill="#000000" stroke="none">
<path d="M480 3585 c0 -2757 3 -3455 13 -3455 110 -4 3906 1 3963 5 226 16
333 29 436 51 37 7 82 16 100 19 134 24 330 88 473 155 39 18 72 34 75 34 15
3 144 81 200 120 296 209 498 495 605 861 15 50 29 101 31 115 3 14 9 44 15
68 5 24 12 62 15 85 3 23 7 53 9 67 11 67 19 240 18 375 0 169 -6 247 -28 390
-4 22 -8 49 -10 60 -1 11 -8 40 -15 65 -7 25 -13 50 -15 55 -14 64 -25 95 -46
137 -5 10 -9 22 -9 28 0 30 -132 280 -152 288 -4 2 -8 8 -8 14 0 11 -29 48
-113 141 -42 48 -114 113 -193 177 -23 18 -154 100 -161 100 -3 0 -14 7 -24
16 -9 8 -23 17 -31 18 -7 1 -43 16 -79 34 -37 18 -70 32 -74 32 -4 0 -21 6
-38 14 -49 22 -192 64 -296 86 -52 12 -98 23 -102 25 -11 7 -6 85 5 87 50 7
176 42 271 76 121 43 132 47 146 59 8 6 25 14 38 18 19 6 131 71 166 97 91 67
191 160 238 222 12 16 29 36 37 46 8 9 20 25 27 36 23 36 77 129 78 134 1 3
13 30 27 60 24 52 40 89 43 100 0 3 8 28 18 55 14 43 24 81 43 170 5 22 14 85
19 125 2 14 4 25 5 25 7 0 12 361 6 455 -4 50 -16 154 -23 185 -2 11 -6 38 -9
59 -3 22 -9 48 -15 57 -5 10 -8 22 -7 26 5 18 -58 196 -101 288 -163 344 -446
588 -851 735 -123 45 -301 91 -405 106 -11 1 -20 3 -20 4 0 3 -111 18 -190 26
-33 3 -71 8 -85 12 -14 3 -924 8 -2022 9 l-1998 4 0 -3456z m3320 2475 c0 -3
28 -6 63 -6 52 -2 123 -9 162 -18 6 -2 28 -7 50 -11 55 -12 54 -12 60 -15 3
-1 8 -3 13 -4 146 -39 285 -117 380 -216 66 -69 114 -146 152 -245 26 -66 23
-57 35 -110 13 -63 14 -67 21 -125 9 -67 9 -263 0 -345 -15 -138 -92 -344
-156 -418 -85 -99 -165 -164 -259 -211 -52 -27 -188 -75 -231 -82 -14 -3 -31
-7 -39 -10 -14 -5 -32 -8 -121 -20 -25 -4 -480 -8 -1012 -10 l-967 -3 1 924 0
924 21 3 c37 5 1827 3 1827 -2z m103 -2754 c49 -4 100 -8 111 -11 12 -2 35 -6
51 -9 56 -8 170 -37 225 -57 355 -132 552 -403 597 -824 12 -119 6 -356 -12
-460 -6 -37 -17 -97 -20 -110 -20 -88 -127 -325 -147 -325 -4 0 -8 -5 -8 -10
0 -11 -43 -62 -100 -118 -50 -49 -212 -152 -265 -168 -5 -2 -37 -13 -70 -25
-72 -26 -159 -47 -223 -55 -26 -2 -58 -8 -72 -11 -14 -4 -474 -8 -1022 -10
l-997 -4 0 1098 c1 604 2 1100 4 1103 5 7 1840 4 1948 -4z"/>
</g>
</svg>
